<svg xmlns="http://www.w3.org/2000/svg" viewBox="0 0 1440 320"><path fill="#f3f4f5" fill-opacity="1" d="M0,192L24,176C48,160,96,128,144,144C192,160,240,224,288,245.3C336,267,384,245,432,208C480,171,528,117,576,106.7C624,96,672,128,720,128C768,128,816,96,864,80C912,64,960,64,1008,80C1056,96,1104,128,1152,165.3C1200,203,1248,245,1296,229.3C1344,213,1392,139,1416,101.3L1440,64L1440,320L1416,320C1392,320,1344,320,1296,320C1248,320,1200,320,1152,320C1104,320,1056,320,1008,320C960,320,912,320,864,320C816,320,768,320,720,320C672,320,624,320,576,320C528,320,480,320,432,320C384,320,336,320,288,320C240,320,192,320,144,320C96,320,48,320,24,320L0,320Z"></path></svg>