<?xml version="1.0" encoding="utf-8"?>
<!-- Generator: Adobe Illustrator 26.5.0, SVG Export Plug-In . SVG Version: 6.00 Build 0)  -->
<svg version="1.1" id="Layer_1" xmlns="http://www.w3.org/2000/svg" xmlns:xlink="http://www.w3.org/1999/xlink" x="0px" y="0px"
	 viewBox="0 0 576 512" style="enable-background:new 0 0 576 512;" xml:space="preserve">
<style type="text/css">
	.st0{fill:#FFFFFF;}
</style>
<path class="st0" d="M97.2,96.2c10.4-10.7,16-17.1,16-21.9c0-2.8-1.9-5.5-3.8-7.4c-2.4-1.8-5.4-2.8-8.4-2.8
	c-8.5,0-20.9,8.8-35.8,25.7C23.7,137,2.5,182.8,3.4,250.3s17.5,117,54.1,161.9c18.8,23.6,33.2,35.8,43.5,35.8
	c3.2-0.3,6.1-1.6,8.4-3.8c1.9-2.8,3.8-5.6,3.8-8.4c0-5.6-3.9-12.2-13.2-20.5c-44.5-42.3-67.3-97-67.5-165
	C32.3,188.8,54,137.8,97.2,96.2L97.2,96.2z M239.5,420.1c0.6,0.4,0.9,0.5,0.9,0.5L239.5,420.1z M333.3,420.6l0.2-0.1
	C333.2,420.6,333.2,420.7,333.3,420.6z M336.4,262.4c-16.2-4.1,50.4-82.9-68-177.2c0,0,15.5,49.4-62.8,159.6
	c-74.3,104.3,23.5,168.7,34,175.2c-6.7-4.4-47.4-35.7,9.6-128.6c11-18.3,25.5-34.9,43.5-72.2c0,0,15.9,22.4,7.6,71.1
	C287.7,364,354,342.9,355,343.9c22.8,26.8-17.7,73.5-21.6,76.5c5.5-3.6,117.7-78,33-188.1C360.4,238.4,352.6,266.6,336.4,262.4
	L336.4,262.4z M510.9,89.7C496,72.8,483.5,64,475,64c-3,0.1-5.9,1.1-8.4,2.8c-1.9,1.9-3.8,4.7-3.8,7.4c0,4.8,5.6,11.3,16,21.9
	c43.2,41.6,65,92.6,64.8,154.1c-0.2,68-23,122.6-67.5,165c-9.3,8.4-13.2,14.9-13.2,20.5c0,2.8,1.9,5.6,3.8,8.4
	c2.3,2.2,5.2,3.6,8.4,3.9c10.3,0,24.7-12.1,43.5-35.8c36.6-44.9,53.1-94.4,54.1-161.9S552.3,137,510.9,89.7L510.9,89.7z"/>
</svg>
